Coordinates
nRows=10
nColumns=38

# SIMM Motion File Header:
name Coordinates
datacolumns 38
datarows 10
otherdata 1
range 1.10000000000000010000 1.10900000000000000000

Units are S.I. units (second, meters, Newtons, ...)
Angles are in degrees.

endheader
time	pelvis_tilt	pelvis_list	pelvis_rotation	pelvis_tx	pelvis_ty	pelvis_tz	hip_flexion_r	hip_adduction_r	hip_rotation_r	knee_angle_r	ankle_angle_r	subtalar_angle_r	mtp_angle_r	hip_flexion_l	hip_adduction_l	hip_rotation_l	knee_angle_l	ankle_angle_l	subtalar_angle_l	mtp_angle_l	lumbar_extension	lumbar_bending	lumbar_rotation	arm_flex_r	arm_add_r	arm_rot_r	elbow_flex_r	pro_sup_r	wrist_flex_r	wrist_dev_r	arm_flex_l	arm_add_l	arm_rot_l	elbow_flex_l	pro_sup_l	wrist_flex_l	wrist_dev_l
      1.10000000000000010000	     -0.46546241391952570000	      1.25761618778967480000	     -0.56577809476561469000	      0.83556322819791162000	      1.01694567828855800000	     -0.35447677558169127000	     21.74511765485390700000	      4.49691849157883630000	      1.49175519813075290000	     -9.46021006185132940000	      4.22630949536240590000	      0.00000000000000000000	      0.00000000000000000000	    -14.98734162994661100000	      5.05862633560524610000	      4.64095176981556360000	    -43.07463763211755000000	    -26.13567370119162800000	      0.00000000000000000000	      0.00000000000000000000	    -12.50794922377100300000	     -4.95404451437808380000	    -12.39668130851480600000	    -32.64872416166535600000	    -12.45730855489582600000	    -15.31784524790198200000	     92.62011524545555100000	     71.07494086564501900000	      0.00000000000000000000	      0.00000000000000000000	     -2.09027549662689620000	    -24.04490956334757400000	      6.91419453090234450000	    109.94233988465638000000	     98.82825130387763600000	      0.00000000000000000000	      0.00000000000000000000
      1.10100000000000000000	     -0.34097622472472078000	      1.23924562252246110000	     -0.57949667235132263000	      0.83559553588313151000	      1.01661799949453390000	     -0.35450901281925279000	     21.61317278231281200000	      4.53906456747553650000	      1.48890796534651230000	     -9.65260901680721340000	      4.21737084403948260000	     -0.00000000000000000114	     -0.00000000000000000342	    -14.90220274105568200000	      5.05834183750431080000	      4.61153288653486730000	    -43.66298981249013200000	    -26.04563202407734200000	      0.00000000000000000052	     -0.00000000000000000073	    -12.66798369547718500000	     -4.91066780646381230000	    -12.32760734325464600000	    -32.57845119930585300000	    -12.48756498478230100000	    -15.33565578134174600000	     92.66242868778414300000	     71.05231778796115800000	      0.00000000000000000016	      0.00000000000000000036	     -2.07433176809728260000	    -24.06166510274339700000	      6.97780262460881850000	    109.87544708729155000000	     98.88871294645801400000	     -0.00000000000000000009	     -0.00000000000000000019
      1.10200000000000010000	     -0.21457859516141989000	      1.22032667922980290000	     -0.59253803444664621000	      0.83562695795879072000	      1.01628442966955170000	     -0.35454289258975957000	     21.47860000567058200000	      4.58152707904009750000	      1.48921903598496770000	     -9.85007900554454170000	      4.22058323632365440000	     -0.00000000000000000006	     -0.00000000000000001297	    -14.81771939373311400000	      5.05638586061127880000	      4.57906803473294490000	    -44.25120387614899900000	    -25.95340104078574900000	      0.00000000000000000126	     -0.00000000000000000044	    -12.83034009039029200000	     -4.86646757841632920000	    -12.25818260174270000000	    -32.50780581070634400000	    -12.51960564194995300000	    -15.35312372822612100000	     92.70566657601649800000	     71.02960675636117600000	     -0.00000000000000000036	      0.00000000000000000479	     -2.05891918193051640000	    -24.07696012594454900000	      7.04028734222195500000	    109.80654863018918000000	     98.94739787260270700000	     -0.00000000000000000057	     -0.00000000000000000045
      1.10300000000000000000	     -0.08650426712124374700	      1.20048756039928950000	     -0.60517163769744053000	      0.83565677574393371000	      1.01594531726654850000	     -0.35457813931448218000	     21.34198636994165500000	      4.62457192717125310000	      1.49113852258878570000	    -10.05285416447949300000	      4.21289137584745710000	      0.00000000000000000851	     -0.00000000000000001633	    -14.73355678278195300000	      5.05235157018609370000	      4.54312445545528210000	    -44.83932797243439700000	    -25.85917159359683000000	      0.00000000000000000213	      0.00000000000000000580	    -12.99482180877310500000	     -4.82105607253674950000	    -12.18803276154677900000	    -32.43664649041805600000	    -12.55350392435286900000	    -15.37030336742942400000	     92.74971030966366900000	     71.00681174238941700000	     -0.00000000000000000696	      0.00000000000000000315	     -2.04396151337894150000	    -24.09060050816908900000	      7.10165522933495820000	    109.73545991103181000000	     99.00425316473355500000	     -0.00000000000000000105	      0.00000000000000000000
      1.10400000000000010000	      0.04319973226850799800	      1.17985173366524390000	     -0.61724341257739557000	      0.83568494958298500000	      1.01560056930601440000	     -0.35461488091148452000	     21.20336327549165000000	      4.66805861068596870000	      1.49467670533628260000	    -10.26080834004696400000	      4.19817503441155450000	      0.00000000000000001834	     -0.00000000000000001917	    -14.64964741235247700000	      5.04625771920744540000	      4.50387219117635420000	    -45.42734423588498100000	    -25.76321054006283600000	      0.00000000000000000295	      0.00000000000000001518	    -13.16138664690790000000	     -4.77455695467260370000	    -12.11730437280911400000	    -32.36500109150406200000	    -12.58920640995924100000	    -15.38722739032058800000	     92.79461235598159900000	     70.98394268927847900000	     -0.00000000000000001420	      0.00000000000000000200	     -2.02949565323181380000	    -24.10263704507328300000	      7.16189991086456160000	    109.66226927631031000000	     99.05904385469638400000	     -0.00000000000000000132	     -0.00000000000000000007
      1.10500000000000000000	      0.17450531393266747000	      1.15844847930732690000	     -0.62866203777365515000	      0.83571133363343508000	      1.01525025080467280000	     -0.35465317150542885000	     21.06280405566559800000	      4.71193337659144080000	      1.49959408520229110000	    -10.47388751012767300000	      4.17625908614855050000	      0.00000000000000003675	     -0.00000000000000002426	    -14.56593570418300800000	      5.03803612827531030000	      4.46139400351143500000	    -46.01523473440283900000	    -25.66577663287730700000	      0.00000000000000000328	      0.00000000000000002511	    -13.33002269828448600000	     -4.72699474706518610000	    -12.04606284482218500000	    -32.29286078114109400000	    -12.62667675096174600000	    -15.40393230958980200000	     92.84039948135208000000	     70.96100428474071000000	     -0.00000000000000002164	     -0.00000000000000000174	     -2.01552856166883430000	    -24.11308814164095400000	      7.22102026529444710000	    109.58702696825419000000	     99.11155070165433800000	     -0.00000000000000000208	      0.00000000000000000056
      1.10600000000000010000	      0.30740560837783043000	      1.13631559860196640000	     -0.63932349042846892000	      0.83573580107437051000	      1.01489443936110770000	     -0.35469306704617115000	     20.92035416175973900000	      4.75614181118250560000	      1.50569992853338190000	    -10.69203246021657200000	      4.14801403779190990000	      0.00000000000000005625	     -0.00000000000000002869	    -14.48239116990441400000	      5.02762492397452300000	      4.41580243582737180000	    -46.60297615749629300000	    -25.56712143181207300000	      0.00000000000000000345	      0.00000000000000003800	    -13.50073898505664100000	     -4.67840217934196100000	    -11.97438750353200200000	    -32.22021711178839400000	    -12.66587444560685700000	    -15.42045257027887400000	     92.88710140123970400000	     70.93799847109089300000	     -0.00000000000000003174	     -0.00000000000000000636	     -2.00206780269938500000	    -24.12198316945547600000	      7.27901533571691670000	    109.50979469248708000000	     99.16154700227070900000	     -0.00000000000000000282	      0.00000000000000000127
      1.10700000000000000000	      0.44189624425008622000	      1.11347730036850080000	     -0.64913474313922814000	      0.83575820973189940000	      1.01453323056372450000	     -0.35473459962733561000	     20.77607141322714000000	      4.80064947241101250000	      1.51279066591219700000	    -10.91520385354455600000	      4.11414526956939140000	      0.00000000000000005921	     -0.00000000000000003439	    -14.39898454832447800000	      5.01495042353869190000	      4.36720717451532090000	    -47.19054465028832400000	    -25.46748473590301700000	      0.00000000000000000298	      0.00000000000000004678	    -13.67354674011587100000	     -4.62879842414885270000	    -11.90234367386023000000	    -32.14705540325436300000	    -12.70676040298174000000	    -15.43682150491508600000	     92.93474170750518200000	     70.91492466788059800000	     -0.00000000000000004445	     -0.00000000000000001098	     -1.98911821421495840000	    -24.12935055892792800000	      7.33588433830475940000	    109.43063255756635000000	     99.20880738505161400000	     -0.00000000000000000350	      0.00000000000000000178
      1.10800000000000010000	      0.57796354097921654000	      1.08994963235334130000	     -0.65801522622759689000	      0.83577840829365391000	      1.01416670984722620000	     -0.35477777456039639000	     20.63003705821898100000	      4.84543911798330470000	      1.52067081720381190000	    -11.14338272128532700000	      4.07546694879942080000	      0.00000000000000005718	     -0.00000000000000002830	    -14.31567556246341000000	      4.99993376156276790000	      4.31571581436892780000	    -47.77791761737301400000	    -25.36709066034241300000	      0.00000000000000000295	      0.00000000000000005795	    -13.84844492315551200000	     -4.57819584482947220000	    -11.82998260076980500000	    -32.07335873641372400000	    -12.74929653837755000000	    -15.45307087828794000000	     92.98333842951780100000	     70.89178009184182400000	     -0.00000000000000005774	     -0.00000000000000001459	     -1.97668601863879490000	    -24.13521857248828400000	      7.39162551160697490000	    109.34960062690384000000	     99.25310914675719700000	     -0.00000000000000000476	      0.00000000000000000247
      1.10900000000000000000	      0.71556906702031586000	      1.06573857439214970000	     -0.66590357155141022000	      0.83579623310599926000	      1.01379492875869030000	     -0.35482256162495363000	     20.48237592097874300000	      4.89051445556358110000	      1.52915596157949630000	    -11.37657787987154900000	      4.03284208819323190000	      0.00000000000000005387	     -0.00000000000000002084	    -14.23239572118619700000	      4.98249072992621580000	      4.26142623171758310000	    -48.36507739163263900000	    -25.26614278838496500000	      0.00000000000000000282	      0.00000000000000006825	    -14.02540273112692000000	     -4.52659934864477000000	    -11.75733463561825700000	    -31.99910974807355800000	    -12.79344682632841800000	    -15.46923077991744800000	     93.03290225063905400000	     70.86856006837845700000	     -0.00000000000000007013	     -0.00000000000000001722	     -1.96478132260148740000	    -24.13961289596233700000	      7.44623505897535050000	    109.26675661659540000000	     99.29423562468298300000	     -0.00000000000000000601	      0.00000000000000000320
